<svg xmlns="http://www.w3.org/2000/svg" width="340.279" height="149.848" viewBox="0 0 340.279 149.848">
  <g id="Groupe_9263" data-name="Groupe 9263" transform="translate(3 0.515)">
    <g id="Groupe_3" data-name="Groupe 3" transform="translate(-3 -0.515)">
      <path id="Tracé_14" data-name="Tracé 14" d="M67.936,4.137A51.689,51.689,0,0,0,46.873,0a50.457,50.457,0,0,0-24.05,5.661A42.319,42.319,0,0,0,6.087,21.426,43.446,43.446,0,0,0,0,44.313,43.417,43.417,0,0,0,6.087,67.2,42.289,42.289,0,0,0,22.823,82.97a50.452,50.452,0,0,0,24.05,5.662,59.277,59.277,0,0,0,8.533-.6l-7.2-19.373h-.121a24.788,24.788,0,0,1-12.36-3.043,21.109,21.109,0,0,1-8.4-8.583,26.359,26.359,0,0,1-2.979-12.721,26.387,26.387,0,0,1,2.979-12.721,21.18,21.18,0,0,1,8.4-8.585,24.845,24.845,0,0,1,12.36-3.043q11.8,0,20.091,9.982L83.517,16.07A40.523,40.523,0,0,0,67.936,4.137Z" transform="matrix(0.914, 0.407, -0.407, 0.914, 36.05, 0)" fill="#0d0d0d"/>
      <path id="Tracé_15" data-name="Tracé 15" d="M1902.109,895.3v55.527l23.128,8.59V895.3Z" transform="translate(-1787.673 -885.556)" fill="#0d0d0d"/>
      <path id="Tracé_16" data-name="Tracé 16" d="M1988.245,885.527q-3.9-3.348-10.23-3.349a14.658,14.658,0,0,0-10.229,3.532,11.81,11.81,0,0,0,0,17.531,14.652,14.652,0,0,0,10.229,3.533,14.492,14.492,0,0,0,10.23-3.6,11.805,11.805,0,0,0,3.895-9.067A10.826,10.826,0,0,0,1988.245,885.527Zm-21.793,28.549v45.332l22.373,8.315a5.126,5.126,0,0,1,.755.356v-54Z" transform="translate(-1813.907 -879.985)" fill="#0d0d0d"/>
      <path id="Tracé_17" data-name="Tracé 17" d="M2065.112,985.514a13.758,13.758,0,0,1-10.288-4.2q-4.081-4.2-4.078-11.628,0-7.31,4.078-11.443a13.836,13.836,0,0,1,10.288-4.142q8.648,0,13.151,8.889l17.894-9.131a26.651,26.651,0,0,0-11.564-13.332q-8.156-4.807-19.361-4.809a43.272,43.272,0,0,0-19.6,4.322,33.158,33.158,0,0,0,0,59.474,42.707,42.707,0,0,0,19.6,4.384q11.2,0,19.361-4.81a26.623,26.623,0,0,0,11.564-13.331l-17.894-9.13Q2073.758,985.514,2065.112,985.514Z" transform="translate(-1840.864 -902.72)" fill="#0d0d0d"/>
      <path id="Tracé_18" data-name="Tracé 18" d="M2208.495,947.9l27.392-28.249h-27.392l-23.616,23.014V895.3H2161.75v90.34h23.129V969.443l6.816-6.939,18.509,23.134h28Z" transform="translate(-1897.928 -885.556)" fill="#0d0d0d"/>
    </g>
    <path id="Tracé_19" data-name="Tracé 19" d="M1925.609,1020.26l-81.052-30.111a4.5,4.5,0,0,0-5.749,5.749l30.111,81.051a4.488,4.488,0,0,0,8.46-.224l11.11-35.591a1.99,1.99,0,0,1,1.3-1.3l35.592-11.109a4.489,4.489,0,0,0,.225-8.46Zm-39.208,8.665h-8.544v8.341h-7.786v-8.341h-8.595v-7.381h8.595V1013.2h7.786v8.342h8.544Z" transform="translate(-1782.252 -930.498)" fill="#ffde77"/>
  </g>
</svg>
